<svg width="74" height="73" viewBox="0 0 74 73" fill="none" xmlns="http://www.w3.org/2000/svg">
<path d="M6.45837 31.0007C6.45837 19.4316 6.45837 13.6471 10.0524 10.053C13.6465 6.45898 19.431 6.45898 31.0001 6.45898C42.569 6.45898 48.3536 6.45898 51.9478 10.053C55.5417 13.6471 55.5417 19.4316 55.5417 31.0007C55.5417 42.5696 55.5417 48.3542 51.9478 51.9484C48.3536 55.5423 42.569 55.5423 31.0001 55.5423C19.431 55.5423 13.6465 55.5423 10.0524 51.9484C6.45837 48.3542 6.45837 42.5696 6.45837 31.0007Z" stroke="#747373" stroke-width="3"/>
<path d="M42.625 23.25C44.7651 23.25 46.5 21.5151 46.5 19.375C46.5 17.2349 44.7651 15.5 42.625 15.5C40.4849 15.5 38.75 17.2349 38.75 19.375C38.75 21.5151 40.4849 23.25 42.625 23.25Z" stroke="#747373" stroke-width="3"/>
<path d="M41.3333 56.8326C39.7329 51.0844 35.9974 45.9364 30.6809 42.196C24.9488 38.1626 17.7517 36.028 10.3739 36.1729C9.49783 36.1709 8.62255 36.1988 7.75 36.2566" stroke="#747373" stroke-width="3" stroke-linejoin="round"/>
<path d="M33.5834 46.5005C37.9789 43.0732 42.7142 41.3153 47.4977 41.3341C50.2102 41.3313 52.9098 41.9063 55.5417 43.0433" stroke="#747373" stroke-width="3" stroke-linejoin="round"/>
<rect x="39" y="38" width="33" height="33" rx="16.5" fill="#747373"/>
<rect x="39" y="38" width="33" height="33" rx="16.5" stroke="white" stroke-width="4"/>
<path d="M56 46V62" stroke="white" stroke-width="4" stroke-linecap="round" stroke-linejoin="round"/>
<path d="M48 54H64" stroke="white" stroke-width="4" stroke-linecap="round" stroke-linejoin="round"/>
</svg>
