<svg width="86" height="86" viewBox="0 0 86 86" fill="none" xmlns="http://www.w3.org/2000/svg">
<path d="M85.504 58.1039L85.5044 58.3176C85.472 63.0149 84.1943 67.621 81.7998 71.6652L81.6914 71.8483L81.7481 72.0533L85.1689 84.4218L72.8003 81.0001L72.5956 80.9434L72.4127 81.0515C69.2691 82.9082 65.7775 84.0996 62.1546 84.5517C58.5316 85.0039 54.8544 84.7071 51.3508 83.6799C47.8472 82.6527 44.5919 80.9169 41.7866 78.5801C39.185 76.4129 37.0218 73.7716 35.4106 70.7989C44.873 70.4512 53.8666 66.5386 60.5761 59.8291C67.2853 53.1199 71.1979 44.1269 71.5459 34.6651C75.6395 36.8925 79.0842 40.154 81.5329 44.13C84.1208 48.3322 85.4953 53.1687 85.504 58.1039Z" fill="#22B573" stroke="#22B573"/>
<path d="M66.15 33.327C66.1495 28.3943 65.0113 23.5282 62.8241 19.107C60.6368 14.6858 57.4594 10.8286 53.5388 7.83519C49.6182 4.84182 45.0601 2.79295 40.2188 1.84787C35.3776 0.902785 30.3835 1.08695 25.625 2.38605C20.8665 3.68515 16.4717 6.06418 12.7822 9.33819C9.09275 12.6122 6.20807 16.693 4.35241 21.2633C2.49675 25.8336 1.72011 30.7703 2.08287 35.6896C2.44563 40.6089 3.93802 45.3783 6.44401 49.627L2.11401 65.286L17.769 60.957C22.6413 63.8305 28.1867 65.3647 33.843 65.4042C39.4994 65.4437 45.0656 63.987 49.9776 61.1819C54.8895 58.3767 58.9725 54.3228 61.8126 49.431C64.6528 44.5392 66.1491 38.9835 66.15 33.327V33.327Z" fill="#E9F7ED" stroke="#22B573" stroke-width="2.5"/>
<mask id="path-3-inside-1_46_6212" fill="white">
<path d="M37.668 36.8712H32.6875C32.6745 36.155 32.668 35.7188 32.668 35.5626C32.668 33.948 32.9349 32.6199 33.4688 31.5782C34.0026 30.5365 35.0703 29.3647 36.6719 28.0626C38.2734 26.7605 39.2305 25.9076 39.543 25.504C40.0247 24.866 40.2656 24.1629 40.2656 23.3946C40.2656 22.3269 39.8359 21.4155 38.9766 20.6602C38.1302 19.892 36.9844 19.5079 35.5391 19.5079C34.1458 19.5079 32.9805 19.905 32.043 20.6993C31.1055 21.4936 30.4609 22.7045 30.1094 24.3321L25.0703 23.7071C25.2135 21.3764 26.2031 19.3972 28.0391 17.7696C29.888 16.142 32.3099 15.3282 35.3047 15.3282C38.4557 15.3282 40.9622 16.155 42.8242 17.8087C44.6862 19.4493 45.6172 21.3634 45.6172 23.5509C45.6172 24.7618 45.2721 25.9076 44.582 26.9884C43.9049 28.0691 42.4466 29.5405 40.207 31.4024C39.0482 32.366 38.3255 33.1407 38.0391 33.7267C37.7656 34.3126 37.6419 35.3608 37.668 36.8712ZM32.6875 44.254V38.7657H38.1758V44.254H32.6875Z"/>
</mask>
<path d="M37.668 36.8712H32.6875C32.6745 36.155 32.668 35.7188 32.668 35.5626C32.668 33.948 32.9349 32.6199 33.4688 31.5782C34.0026 30.5365 35.0703 29.3647 36.6719 28.0626C38.2734 26.7605 39.2305 25.9076 39.543 25.504C40.0247 24.866 40.2656 24.1629 40.2656 23.3946C40.2656 22.3269 39.8359 21.4155 38.9766 20.6602C38.1302 19.892 36.9844 19.5079 35.5391 19.5079C34.1458 19.5079 32.9805 19.905 32.043 20.6993C31.1055 21.4936 30.4609 22.7045 30.1094 24.3321L25.0703 23.7071C25.2135 21.3764 26.2031 19.3972 28.0391 17.7696C29.888 16.142 32.3099 15.3282 35.3047 15.3282C38.4557 15.3282 40.9622 16.155 42.8242 17.8087C44.6862 19.4493 45.6172 21.3634 45.6172 23.5509C45.6172 24.7618 45.2721 25.9076 44.582 26.9884C43.9049 28.0691 42.4466 29.5405 40.207 31.4024C39.0482 32.366 38.3255 33.1407 38.0391 33.7267C37.7656 34.3126 37.6419 35.3608 37.668 36.8712ZM32.6875 44.254V38.7657H38.1758V44.254H32.6875Z" fill="#22B573"/>
<path d="M37.668 36.8712V37.8712H38.6854L38.6678 36.8539L37.668 36.8712ZM32.6875 36.8712L31.6877 36.8894L31.7055 37.8712H32.6875V36.8712ZM33.4688 31.5782L32.5788 31.1221L33.4688 31.5782ZM39.543 25.504L40.3337 26.1162L40.341 26.1066L39.543 25.504ZM38.9766 20.6602L38.3045 21.4007L38.3104 21.4061L38.3164 21.4114L38.9766 20.6602ZM30.1094 24.3321L29.9863 25.3245L30.8938 25.4371L31.0868 24.5433L30.1094 24.3321ZM25.0703 23.7071L24.0722 23.6458L24.0145 24.5838L24.9472 24.6995L25.0703 23.7071ZM28.0391 17.7696L27.3783 17.019L27.3757 17.0213L28.0391 17.7696ZM42.8242 17.8087L42.1602 18.5564L42.1631 18.559L42.8242 17.8087ZM44.582 26.9884L43.7392 26.4502L43.7346 26.4575L44.582 26.9884ZM40.207 31.4024L39.5677 30.6335L39.5677 30.6335L40.207 31.4024ZM38.0391 33.7267L37.1407 33.2874L37.1367 33.2956L37.1329 33.3038L38.0391 33.7267ZM32.6875 44.254H31.6875V45.254H32.6875V44.254ZM32.6875 38.7657V37.7657H31.6875V38.7657H32.6875ZM38.1758 38.7657H39.1758V37.7657H38.1758V38.7657ZM38.1758 44.254V45.254H39.1758V44.254H38.1758ZM37.668 35.8712H32.6875V37.8712H37.668V35.8712ZM33.6873 36.853C33.6742 36.1326 33.668 35.7075 33.668 35.5626H31.668C31.668 35.7302 31.6747 36.1774 31.6877 36.8894L33.6873 36.853ZM33.668 35.5626C33.668 34.0497 33.9193 32.8916 34.3587 32.0343L32.5788 31.1221C31.9505 32.3481 31.668 33.8463 31.668 35.5626H33.668ZM34.3587 32.0343C34.7982 31.1767 35.739 30.1098 37.3027 28.8385L36.041 27.2867C34.4017 28.6195 33.207 29.8964 32.5788 31.1221L34.3587 32.0343ZM37.3027 28.8385C38.1091 28.1829 38.7617 27.6336 39.2561 27.1929C39.7323 26.7686 40.1143 26.3995 40.3337 26.1162L38.7522 24.8918C38.6591 25.0121 38.4064 25.2713 37.9255 25.6998C37.4629 26.1121 36.8362 26.6402 36.041 27.2867L37.3027 28.8385ZM40.341 26.1066C40.9481 25.3026 41.2656 24.3896 41.2656 23.3946H39.2656C39.2656 23.9361 39.1014 24.4294 38.7449 24.9014L40.341 26.1066ZM41.2656 23.3946C41.2656 22.0168 40.6946 20.8388 39.6367 19.9091L38.3164 21.4114C38.9772 21.9921 39.2656 22.637 39.2656 23.3946H41.2656ZM39.6487 19.9198C38.5734 18.9438 37.1647 18.5079 35.5391 18.5079V20.5079C36.804 20.5079 37.687 20.8402 38.3045 21.4007L39.6487 19.9198ZM35.5391 18.5079C33.9428 18.5079 32.5388 18.9686 31.3966 19.9363L32.6894 21.4623C33.4221 20.8415 34.3489 20.5079 35.5391 20.5079V18.5079ZM31.3966 19.9363C30.2401 20.9161 29.5136 22.3537 29.1319 24.121L31.0868 24.5433C31.4082 23.0553 31.9709 22.071 32.6894 21.4623L31.3966 19.9363ZM30.2325 23.3397L25.1934 22.7147L24.9472 24.6995L29.9863 25.3245L30.2325 23.3397ZM26.0684 23.7685C26.1945 21.7165 27.0534 19.9798 28.7024 18.5179L27.3757 17.0213C25.3528 18.8147 24.2326 21.0363 24.0722 23.6458L26.0684 23.7685ZM28.6998 18.5202C30.3288 17.0863 32.4983 16.3282 35.3047 16.3282V14.3282C32.1215 14.3282 29.4472 15.1978 27.3783 17.019L28.6998 18.5202ZM35.3047 16.3282C38.2781 16.3282 40.5258 17.1049 42.1602 18.5564L43.4883 17.061C41.3986 15.2052 38.6334 14.3282 35.3047 14.3282V16.3282ZM42.1631 18.559C43.8419 20.0381 44.6172 21.6908 44.6172 23.5509H46.6172C46.6172 21.0359 45.5305 18.8605 43.4853 17.0584L42.1631 18.559ZM44.6172 23.5509C44.6172 24.5597 44.333 25.5203 43.7392 26.4502L45.4249 27.5266C46.2113 26.295 46.6172 24.964 46.6172 23.5509H44.6172ZM43.7346 26.4575C43.1499 27.3908 41.8033 28.7748 39.5677 30.6335L40.8463 32.1714C43.0899 30.3061 44.66 28.7474 45.4295 27.5193L43.7346 26.4575ZM39.5677 30.6335C38.4064 31.5991 37.5299 32.4914 37.1407 33.2874L38.9374 34.1659C39.1212 33.7901 39.69 33.1329 40.8464 32.1714L39.5677 30.6335ZM37.1329 33.3038C36.7525 34.1188 36.6421 35.3773 36.6681 36.8884L38.6678 36.8539C38.6418 35.3443 38.7787 34.5064 38.9452 34.1495L37.1329 33.3038ZM33.6875 44.254V38.7657H31.6875V44.254H33.6875ZM32.6875 39.7657H38.1758V37.7657H32.6875V39.7657ZM37.1758 38.7657V44.254H39.1758V38.7657H37.1758ZM38.1758 43.254H32.6875V45.254H38.1758V43.254Z" fill="#22B573" mask="url(#path-3-inside-1_46_6212)"/>
</svg>
