<svg width="43" height="43" viewBox="0 0 43 43" fill="none" xmlns="http://www.w3.org/2000/svg">
<path d="M7.1665 33.4077V14.4312C7.1665 9.31777 7.1665 6.76106 8.74081 5.17253C10.3151 3.58398 12.8489 3.58398 17.9165 3.58398H25.0832C30.1507 3.58398 32.6845 3.58398 34.2588 5.17253C35.8332 6.76106 35.8332 9.31777 35.8332 14.4312V33.4077C35.8332 36.1162 35.8332 37.4703 35.0054 38.0033C33.6529 38.8746 31.562 37.0477 30.5103 36.3846C29.6413 35.8365 29.207 35.5625 28.7247 35.5468C28.2037 35.5296 27.7615 35.7924 26.8227 36.3846L23.399 38.5437C22.4754 39.126 22.0137 39.4173 21.4998 39.4173C20.986 39.4173 20.5243 39.126 19.6007 38.5437L16.177 36.3846C15.3081 35.8365 14.8736 35.5625 14.3915 35.5468C13.8704 35.5296 13.4283 35.7924 12.4893 36.3846C11.4377 37.0477 9.34673 38.8746 7.99416 38.0033C7.1665 37.4703 7.1665 36.1162 7.1665 33.4077Z" stroke="black" stroke-width="3" stroke-linecap="round" stroke-linejoin="round"/>
<path d="M19.7085 19.709H14.3335" stroke="black" stroke-width="3" stroke-linecap="round" stroke-linejoin="round"/>
<path d="M25.0835 12.541H14.3335" stroke="black" stroke-width="3" stroke-linecap="round" stroke-linejoin="round"/>
</svg>
