<svg width="9" height="10" viewBox="0 0 9 10" fill="none" xmlns="http://www.w3.org/2000/svg">
<path d="M5.39644 8.73839C6.4771 7.78628 8.39972 5.8411 8.39972 4.05606C8.39972 3.06838 8.00779 2.12116 7.31016 1.42277C6.61252 0.724383 5.66632 0.332031 4.67972 0.332031C3.69311 0.332031 2.74692 0.724383 2.04928 1.42277C1.35164 2.12116 0.959717 3.06838 0.959717 4.05606C0.959717 5.8411 2.88172 7.78628 3.963 8.73839C4.16023 8.91463 4.41535 9.01203 4.67972 9.01203C4.94409 9.01203 5.19921 8.91463 5.39644 8.73839ZM3.43972 4.05606C3.43972 3.72683 3.57036 3.41109 3.8029 3.17829C4.03545 2.9455 4.35085 2.81471 4.67972 2.81471C5.00859 2.81471 5.32398 2.9455 5.55653 3.17829C5.78907 3.41109 5.91972 3.72683 5.91972 4.05606C5.91972 4.38528 5.78907 4.70102 5.55653 4.93382C5.32398 5.16661 5.00859 5.2974 4.67972 5.2974C4.35085 5.2974 4.03545 5.16661 3.8029 4.93382C3.57036 4.70102 3.43972 4.38528 3.43972 4.05606Z" fill="#22B573"/>
</svg>
