<svg width="9" height="9" viewBox="0 0 9 9" fill="none" xmlns="http://www.w3.org/2000/svg">
<path d="M5.39644 8.59777C6.4771 7.64566 8.39972 5.70048 8.39972 3.91543C8.39972 2.92776 8.00779 1.98054 7.31016 1.28215C6.61252 0.583758 5.66632 0.191406 4.67972 0.191406C3.69311 0.191406 2.74692 0.583758 2.04928 1.28215C1.35164 1.98054 0.959717 2.92776 0.959717 3.91543C0.959717 5.70048 2.88172 7.64566 3.963 8.59777C4.16023 8.774 4.41535 8.8714 4.67972 8.8714C4.94409 8.8714 5.19921 8.774 5.39644 8.59777ZM3.43972 3.91543C3.43972 3.58621 3.57036 3.27047 3.8029 3.03767C4.03545 2.80487 4.35085 2.67409 4.67972 2.67409C5.00859 2.67409 5.32398 2.80487 5.55653 3.03767C5.78907 3.27047 5.91972 3.58621 5.91972 3.91543C5.91972 4.24465 5.78907 4.56039 5.55653 4.79319C5.32398 5.02599 5.00859 5.15677 4.67972 5.15677C4.35085 5.15677 4.03545 5.02599 3.8029 4.79319C3.57036 4.56039 3.43972 4.24465 3.43972 3.91543Z" fill="white"/>
</svg>
