<svg width="26" height="20" viewBox="0 0 26 20" fill="none" xmlns="http://www.w3.org/2000/svg">
<mask id="path-1-inside-1_52_6142" fill="white">
<path d="M21.552 9.36375H22.4895V9.33912L22.4882 9.3145L21.552 9.36375ZM21.552 12.5H20.6145V12.8488L20.8424 13.1126L21.552 12.5ZM24.25 18.75V19.6875H25.1875V18.75H24.25ZM24.25 15.625H25.1875C25.1875 15.4 25.1066 15.1826 24.9596 15.0124L24.25 15.625ZM4.44796 9.36375L3.51175 9.3145L3.51046 9.33912V9.36375H4.44796ZM4.44796 12.5L5.15759 13.1126L5.38546 12.8488V12.5H4.44796ZM1.75 18.75H0.8125V19.6875H1.75V18.75ZM1.75 15.625L1.04038 15.0124C0.893375 15.1826 0.8125 15.4 0.8125 15.625H1.75ZM13 2.1875C17.0561 2.1875 20.4026 5.36249 20.6159 9.413L22.4882 9.3145C22.2226 4.26808 18.0534 0.3125 13 0.3125V2.1875ZM20.6145 9.36375V12.5H22.4895V9.36375H20.6145ZM20.8424 13.1126L23.5404 16.2376L24.9596 15.0124L22.2616 11.8874L20.8424 13.1126ZM23.3125 15.625V18.75H25.1875V15.625H23.3125ZM13 0.3125C7.9466 0.3125 3.77736 4.26808 3.51175 9.3145L5.38416 9.413C5.59735 5.36249 8.94384 2.1875 13 2.1875V0.3125ZM3.51046 9.36375V12.5H5.38546V9.36375H3.51046ZM1.75 19.6875H24.25V17.8125H1.75V19.6875ZM3.73834 11.8874L1.04038 15.0124L2.45962 16.2376L5.15759 13.1126L3.73834 11.8874ZM0.8125 15.625V18.75H2.6875V15.625H0.8125Z"/>
</mask>
<path d="M21.552 9.36375H22.4895V9.33912L22.4882 9.3145L21.552 9.36375ZM21.552 12.5H20.6145V12.8488L20.8424 13.1126L21.552 12.5ZM24.25 18.75V19.6875H25.1875V18.75H24.25ZM24.25 15.625H25.1875C25.1875 15.4 25.1066 15.1826 24.9596 15.0124L24.25 15.625ZM4.44796 9.36375L3.51175 9.3145L3.51046 9.33912V9.36375H4.44796ZM4.44796 12.5L5.15759 13.1126L5.38546 12.8488V12.5H4.44796ZM1.75 18.75H0.8125V19.6875H1.75V18.75ZM1.75 15.625L1.04038 15.0124C0.893375 15.1826 0.8125 15.4 0.8125 15.625H1.75ZM13 2.1875C17.0561 2.1875 20.4026 5.36249 20.6159 9.413L22.4882 9.3145C22.2226 4.26808 18.0534 0.3125 13 0.3125V2.1875ZM20.6145 9.36375V12.5H22.4895V9.36375H20.6145ZM20.8424 13.1126L23.5404 16.2376L24.9596 15.0124L22.2616 11.8874L20.8424 13.1126ZM23.3125 15.625V18.75H25.1875V15.625H23.3125ZM13 0.3125C7.9466 0.3125 3.77736 4.26808 3.51175 9.3145L5.38416 9.413C5.59735 5.36249 8.94384 2.1875 13 2.1875V0.3125ZM3.51046 9.36375V12.5H5.38546V9.36375H3.51046ZM1.75 19.6875H24.25V17.8125H1.75V19.6875ZM3.73834 11.8874L1.04038 15.0124L2.45962 16.2376L5.15759 13.1126L3.73834 11.8874ZM0.8125 15.625V18.75H2.6875V15.625H0.8125Z" fill="#141B34"/>
<path d="M12 0.3125V2.1875H14V0.3125H12ZM21.552 9.36375L21.4469 7.36651L21.552 11.3638V9.36375ZM22.4895 9.33912H24.4895V9.28833L24.4869 9.2376L22.4895 9.33912ZM22.4882 9.3145L24.4857 9.21297L24.4855 9.20937L22.4882 9.3145ZM21.552 12.5L22.859 14.0139L26.9292 10.5H21.552V12.5ZM20.6145 12.8488H18.6145V13.5928L19.1008 14.1559L20.6145 12.8488ZM24.25 18.75V16.75H22.25V18.75H24.25ZM25.1875 19.6875V21.6875H27.1875V19.6875H25.1875ZM24.25 15.625L22.943 14.1111L18.8728 17.625H24.25V15.625ZM4.44796 9.36375V11.3638L4.55303 7.36651L4.44796 9.36375ZM3.51175 9.3145L1.51451 9.20938L1.51448 9.21008L3.51175 9.3145ZM3.51046 9.33912L1.51319 9.2347L1.51046 9.28688V9.33912H3.51046ZM4.44796 12.5V10.5H-0.929257L3.14101 14.0139L4.44796 12.5ZM5.38546 12.8488L6.89916 14.1559L7.38546 13.5928V12.8488H5.38546ZM1.75 18.75H3.75V16.75H1.75V18.75ZM0.8125 19.6875H-1.1875V21.6875H0.8125V19.6875ZM1.75 15.625V17.625H7.12721L3.05696 14.1111L1.75 15.625ZM20.6159 9.413L18.6186 9.51815L18.7238 11.5153L20.7209 11.4102L20.6159 9.413ZM20.6145 9.36375V7.36375H18.6145V9.36375H20.6145ZM22.4895 12.5V14.5H24.4895V12.5H22.4895ZM23.5404 16.2376L22.0265 17.5446L23.3335 19.0584L24.8473 17.7515L23.5404 16.2376ZM22.2616 11.8874L23.7755 10.5804L22.4685 9.06657L20.9547 10.3735L22.2616 11.8874ZM23.3125 15.625V13.625H21.3125V15.625H23.3125ZM23.3125 18.75H21.3125V20.75H23.3125V18.75ZM5.38416 9.413L5.2791 11.4102L7.27628 11.5153L7.3814 9.51812L5.38416 9.413ZM3.51046 12.5H1.51046V14.5H3.51046V12.5ZM5.38546 9.36375H7.38546V7.36375H5.38546V9.36375ZM24.25 17.8125H26.25V15.8125H24.25V17.8125ZM1.75 17.8125V15.8125H-0.25V17.8125H1.75ZM3.73834 11.8874L5.04529 10.3735L3.53144 9.06656L2.22448 10.5804L3.73834 11.8874ZM2.45962 16.2376L1.15267 17.7515L2.66653 19.0584L3.97349 17.5446L2.45962 16.2376ZM2.6875 18.75V20.75H4.6875V18.75H2.6875ZM2.6875 15.625H4.6875V13.625H2.6875V15.625ZM21.552 11.3638H22.4895V7.36375H21.552V11.3638ZM24.4895 9.36375V9.33912H20.4895V9.36375H24.4895ZM24.4869 9.2376L24.4857 9.21297L20.4908 9.41603L20.4921 9.44065L24.4869 9.2376ZM22.3832 7.31726L21.4469 7.36651L21.6571 11.361L22.5933 11.3117L22.3832 7.31726ZM21.552 10.5H20.6145V14.5H21.552V10.5ZM18.6145 12.5V12.8488H22.6145V12.5H18.6145ZM19.1008 14.1559L19.3287 14.4198L22.3561 11.8054L22.1282 11.5416L19.1008 14.1559ZM22.1493 14.6265L22.859 14.0139L20.245 10.9861L19.5354 11.5987L22.1493 14.6265ZM22.25 18.75V19.6875H26.25V18.75H22.25ZM24.25 21.6875H25.1875V17.6875H24.25V21.6875ZM27.1875 19.6875V18.75H23.1875V19.6875H27.1875ZM25.1875 16.75H24.25V20.75H25.1875V16.75ZM24.25 17.625H25.1875V13.625H24.25V17.625ZM27.1875 15.625C27.1875 14.9201 26.934 14.2388 26.4734 13.7053L23.4458 16.3194C23.2792 16.1265 23.1875 15.8799 23.1875 15.625H27.1875ZM23.6527 13.4985L22.943 14.1111L25.557 17.1389L26.2666 16.5263L23.6527 13.4985ZM4.55303 7.36651L3.61682 7.31726L3.40668 11.3117L4.3429 11.361L4.55303 7.36651ZM1.51448 9.21008L1.51319 9.2347L5.50773 9.44355L5.50902 9.41892L1.51448 9.21008ZM1.51046 9.33912V9.36375H5.51046V9.33912H1.51046ZM3.51046 11.3638H4.44796V7.36375H3.51046V11.3638ZM3.14101 14.0139L3.85063 14.6265L6.46454 11.5987L5.75492 10.9861L3.14101 14.0139ZM6.67128 14.4198L6.89916 14.1559L3.87177 11.5416L3.64389 11.8054L6.67128 14.4198ZM7.38546 12.8488V12.5H3.38546V12.8488H7.38546ZM5.38546 10.5H4.44796V14.5H5.38546V10.5ZM1.75 16.75H0.8125V20.75H1.75V16.75ZM-1.1875 18.75V19.6875H2.8125V18.75H-1.1875ZM0.8125 21.6875H1.75V17.6875H0.8125V21.6875ZM3.75 19.6875V18.75H-0.25V19.6875H3.75ZM3.05696 14.1111L2.34733 13.4985L-0.266581 16.5263L0.443044 17.1389L3.05696 14.1111ZM-0.473421 13.7053C-0.934049 14.2388 -1.1875 14.9201 -1.1875 15.625H2.8125C2.8125 15.8799 2.7208 16.1265 2.55417 16.3194L-0.473421 13.7053ZM0.8125 17.625H1.75V13.625H0.8125V17.625ZM13 4.1875C15.9924 4.1875 18.4613 6.52986 18.6186 9.51815L22.6131 9.30785C22.3439 4.19512 18.1198 0.1875 13 0.1875V4.1875ZM20.7209 11.4102L22.5933 11.3117L22.3832 7.31726L20.5108 7.41576L20.7209 11.4102ZM24.4855 9.20937C24.1639 3.10071 19.1171 -1.6875 13 -1.6875V2.3125C16.9897 2.3125 20.2813 5.43544 20.491 9.41963L24.4855 9.20937ZM18.6145 9.36375V12.5H22.6145V9.36375H18.6145ZM20.6145 14.5H22.4895V10.5H20.6145V14.5ZM24.4895 12.5V9.36375H20.4895V12.5H24.4895ZM22.4895 7.36375H20.6145V11.3638H22.4895V7.36375ZM19.3285 14.4196L22.0265 17.5446L25.0542 14.9306L22.3562 11.8056L19.3285 14.4196ZM24.8473 17.7515L26.2666 16.5263L23.6527 13.4985L22.2334 14.7237L24.8473 17.7515ZM26.4735 13.7054L23.7755 10.5804L20.7478 13.1944L23.4458 16.3194L26.4735 13.7054ZM20.9547 10.3735L19.5354 11.5987L22.1493 14.6265L23.5686 13.4013L20.9547 10.3735ZM21.3125 15.625V18.75H25.3125V15.625H21.3125ZM23.3125 20.75H25.1875V16.75H23.3125V20.75ZM27.1875 18.75V15.625H23.1875V18.75H27.1875ZM25.1875 13.625H23.3125V17.625H25.1875V13.625ZM13 -1.6875C6.88288 -1.6875 1.83604 3.10071 1.51451 9.20938L5.50899 9.41962C5.71869 5.43544 9.01032 2.3125 13 2.3125V-1.6875ZM3.40668 11.3117L5.2791 11.4102L5.48923 7.41576L3.61682 7.31726L3.40668 11.3117ZM7.3814 9.51812C7.53868 6.52986 10.0076 4.1875 13 4.1875V0.1875C7.88013 0.1875 3.65602 4.19511 3.38693 9.30788L7.3814 9.51812ZM1.51046 9.36375V12.5H5.51046V9.36375H1.51046ZM3.51046 14.5H5.38546V10.5H3.51046V14.5ZM7.38546 12.5V9.36375H3.38546V12.5H7.38546ZM5.38546 7.36375H3.51046V11.3638H5.38546V7.36375ZM1.75 21.6875H24.25V17.6875H1.75V21.6875ZM26.25 19.6875V17.8125H22.25V19.6875H26.25ZM24.25 15.8125H1.75V19.8125H24.25V15.8125ZM-0.25 17.8125V19.6875H3.75V17.8125H-0.25ZM2.22448 10.5804L-0.473487 13.7054L2.55424 16.3194L5.2522 13.1944L2.22448 10.5804ZM-0.266581 16.5263L1.15267 17.7515L3.76658 14.7237L2.34733 13.4985L-0.266581 16.5263ZM3.97349 17.5446L6.67145 14.4196L3.64373 11.8056L0.945763 14.9306L3.97349 17.5446ZM6.46454 11.5987L5.04529 10.3735L2.43138 13.4013L3.85063 14.6265L6.46454 11.5987ZM-1.1875 15.625V18.75H2.8125V15.625H-1.1875ZM0.8125 20.75H2.6875V16.75H0.8125V20.75ZM4.6875 18.75V15.625H0.6875V18.75H4.6875ZM2.6875 13.625H0.8125V17.625H2.6875V13.625Z" fill="#22B573" mask="url(#path-1-inside-1_52_6142)"/>
</svg>
