<svg width="22" height="22" viewBox="0 0 22 22" fill="none" xmlns="http://www.w3.org/2000/svg">
<path d="M11 21C16.5228 21 21 16.5228 21 11C21 5.47715 16.5228 1 11 1C5.47715 1 1 5.47715 1 11C1 16.5228 5.47715 21 11 21Z" stroke="#141B34" stroke-width="2"/>
<path d="M6.64706 15.9412C8.97876 13.499 13.2903 13.384 15.6471 15.9412M13.6422 8.44118C13.6422 9.82188 12.5213 10.9412 11.1386 10.9412C9.75596 10.9412 8.63503 9.82188 8.63503 8.44118C8.63503 7.06047 9.75596 5.94118 11.1386 5.94118C12.5213 5.94118 13.6422 7.06047 13.6422 8.44118Z" stroke="#141B34" stroke-width="2" stroke-linecap="round"/>
</svg>
