<svg width="24" height="24" viewBox="0 0 24 24" fill="none" xmlns="http://www.w3.org/2000/svg">
<path d="M8.65689 2.92239C9.6565 -0.361819 14.3061 -0.361819 15.3058 2.92239L16.1042 5.5458C16.4415 6.6539 17.3087 7.52111 18.4168 7.85838L21.0402 8.65685C24.3244 9.65646 24.3244 14.3061 21.0402 15.3057L18.4168 16.1042C17.3087 16.4415 16.4415 17.3087 16.1042 18.4168L15.3058 21.0402C14.3061 24.3244 9.6565 24.3244 8.65689 21.0402L7.8584 18.4168C7.52113 17.3087 6.65392 16.4415 5.54582 16.1042L2.92243 15.3057C-0.361789 14.3061 -0.361786 9.65646 2.92243 8.65685L5.54582 7.85838C6.65392 7.52111 7.52113 6.6539 7.8584 5.5458L8.65689 2.92239Z" fill="#22B573"/>
</svg>
