<svg width="39" height="39" viewBox="0 0 39 39" fill="none" xmlns="http://www.w3.org/2000/svg">
<path d="M16.8599 2.41023C17.6296 -0.118614 21.2098 -0.118614 21.9795 2.41023L24.9358 12.1229C25.1955 12.9762 25.8632 13.6439 26.7165 13.9036L36.4291 16.8598C38.958 17.6295 38.958 21.2098 36.4291 21.9795L26.7164 24.9357C25.8632 25.1954 25.1955 25.8631 24.9358 26.7164L21.9795 36.4291C21.2098 38.9579 17.6296 38.9579 16.8599 36.4291L13.9037 26.7164C13.644 25.8631 12.9762 25.1954 12.123 24.9357L2.41028 21.9795C-0.11857 21.2098 -0.118566 17.6295 2.41028 16.8598L12.123 13.9036C12.9762 13.6439 13.644 12.9762 13.9037 12.1229L16.8599 2.41023Z" fill="#D9D9D9"/>
</svg>
