<svg width="62" height="77" viewBox="0 0 62 77" fill="none" xmlns="http://www.w3.org/2000/svg">
<path d="M38.75 19.3757C38.75 19.3757 40.0417 19.3757 41.3333 21.959C41.3333 21.959 45.4362 15.5007 49.0833 14.209" stroke="white" stroke-width="3.875" stroke-linecap="round" stroke-linejoin="round"/>
<path d="M56.8333 18.0827C56.8333 25.2164 51.0503 30.9994 43.9167 30.9994C36.7831 30.9994 31 25.2164 31 18.0827C31 10.949 36.7831 5.16602 43.9167 5.16602C51.0503 5.16602 56.8333 10.949 56.8333 18.0827Z" stroke="white" stroke-width="3.875" stroke-linecap="round"/>
<path d="M27.6407 54.9583C27.6407 57.4897 25.5886 59.5417 23.0573 59.5417C20.526 59.5417 18.474 57.4897 18.474 54.9583C18.474 52.427 20.526 50.375 23.0573 50.375C25.5886 50.375 27.6407 52.427 27.6407 54.9583Z" stroke="white" stroke-width="3"/>
<path d="M50.5573 54.9583C50.5573 57.4897 48.5053 59.5417 45.974 59.5417C43.4426 59.5417 41.3906 57.4897 41.3906 54.9583C41.3906 52.427 43.4426 50.375 45.974 50.375C48.5053 50.375 50.5573 52.427 50.5573 54.9583Z" stroke="white" stroke-width="3"/>
<path d="M11.5991 38.9173H48.2658M11.5991 38.9173C11.5991 40.7048 11.5533 45.884 11.6082 50.9715C11.6907 52.6215 11.9654 53.9965 18.478 54.959M11.5991 38.9173C12.0937 34.9298 14.2462 30.209 15.3454 28.4215M27.6407 38.9173V27.459M41.3682 54.959H27.6285M11.6357 27.459H35.048C35.048 27.459 36.2843 27.459 37.3836 27.569C39.4445 27.7615 41.1757 28.6965 42.9068 31.034C44.7399 33.509 46.1495 36.644 48.0179 38.3215C51.1231 41.1091 57.0312 40.2465 57.3608 46.159C57.4433 49.184 57.4433 52.484 57.306 53.034C57.0853 54.6535 55.8366 54.918 54.2833 54.959C52.9351 54.9947 51.3101 54.895 50.5186 54.959" stroke="white" stroke-width="3" stroke-linecap="round"/>
</svg>
