<svg width="30" height="32" viewBox="0 0 30 32" fill="none" xmlns="http://www.w3.org/2000/svg">
<path d="M26.884 21.5921C25.973 21.5921 25.459 21.1191 25.165 20.0131C24.8905 18.5268 24.7825 17.0144 24.843 15.5041C24.9125 13.2824 24.728 11.06 24.293 8.88013C24.2782 8.82012 24.2519 8.76359 24.2153 8.71377C24.1788 8.66396 24.1327 8.62183 24.0799 8.58979C24.0271 8.55775 23.9684 8.53644 23.9074 8.52706C23.8463 8.51768 23.784 8.52042 23.724 8.53513C23.6639 8.54984 23.6074 8.57623 23.5576 8.61278C23.5078 8.64934 23.4656 8.69535 23.4336 8.74818C23.4016 8.80102 23.3803 8.85965 23.3709 8.92072C23.3615 8.9818 23.3642 9.04412 23.379 9.10413C23.7938 11.213 23.9686 13.362 23.9 15.5101C23.8362 17.1001 23.9546 18.6921 24.253 20.2551C24.3691 20.7374 24.5791 21.192 24.871 21.5931H5.26995C5.56175 21.192 5.77174 20.7374 5.88795 20.2551C6.18643 18.6921 6.30487 17.1001 6.24095 15.5101C6.25795 12.7641 6.27695 9.65113 7.39995 7.26913C8.66495 4.58713 11.174 3.28413 15.07 3.28413C16.8799 3.2069 18.6769 3.6216 20.27 4.48413C21.4183 5.18269 22.3137 6.22947 22.826 7.47213C22.8761 7.58631 22.9695 7.6759 23.0857 7.72119C23.2019 7.76648 23.3313 7.76376 23.4455 7.71363C23.5596 7.66351 23.6492 7.57008 23.6945 7.4539C23.7398 7.33772 23.7371 7.20831 23.687 7.09413C23.0927 5.67633 22.0672 4.48155 20.756 3.67913C19.8593 3.1541 18.8779 2.78963 17.856 2.60213C17.8059 1.89555 17.4899 1.2342 16.9716 0.751339C16.4533 0.268479 15.7713 0 15.063 0C14.3546 0 13.6726 0.268479 13.1543 0.751339C12.636 1.2342 12.32 1.89555 12.27 2.60213C11.2979 2.78195 10.3621 3.12047 9.49995 3.60413C8.20259 4.36025 7.17185 5.50035 6.54995 6.86713C5.33795 9.43713 5.31795 12.6601 5.29995 15.5041C5.36059 17.0134 5.25292 18.5247 4.97895 20.0101C4.68495 21.1161 4.16995 21.5891 3.25995 21.5891C2.52849 21.5891 1.82698 21.8797 1.30975 22.3969C0.792527 22.9142 0.501953 23.6157 0.501953 24.3471C0.501953 25.0786 0.792527 25.7801 1.30975 26.2973C1.82698 26.8146 2.52849 27.1051 3.25995 27.1051H6.23495C6.35974 27.1051 6.47941 27.0556 6.56765 26.9673C6.65588 26.8791 6.70545 26.7594 6.70545 26.6346C6.70545 26.5098 6.65588 26.3902 6.56765 26.3019C6.47941 26.2137 6.35974 26.1641 6.23495 26.1641H3.25795C2.77605 26.1641 2.31389 25.9727 1.97314 25.6319C1.63239 25.2912 1.44095 24.829 1.44095 24.3471C1.44095 23.8652 1.63239 23.4031 1.97314 23.0623C2.31389 22.7216 2.77605 22.5301 3.25795 22.5301H26.884C27.3659 22.5301 27.828 22.7216 28.1688 23.0623C28.5095 23.4031 28.701 23.8652 28.701 24.3471C28.701 24.829 28.5095 25.2912 28.1688 25.6319C27.828 25.9727 27.3659 26.1641 26.884 26.1641H8.11695C7.99217 26.1641 7.8725 26.2137 7.78426 26.3019C7.69602 26.3902 7.64645 26.5098 7.64645 26.6346C7.64645 26.7594 7.69602 26.8791 7.78426 26.9673C7.8725 27.0556 7.99217 27.1051 8.11695 27.1051H10.048C10.1652 28.3562 10.745 29.5185 11.6741 30.3645C12.6031 31.2106 13.8144 31.6795 15.071 31.6795C16.3275 31.6795 17.5388 31.2106 18.4678 30.3645C19.3969 29.5185 19.9767 28.3562 20.094 27.1051H26.884C27.6154 27.1051 28.3169 26.8146 28.8342 26.2973C29.3514 25.7801 29.642 25.0786 29.642 24.3471C29.642 23.6157 29.3514 22.9142 28.8342 22.3969C28.3169 21.8797 27.6154 21.5891 26.884 21.5891V21.5921ZM15.071 0.951134C15.5015 0.950887 15.9189 1.09964 16.2523 1.37214C16.5857 1.64464 16.8145 2.02411 16.9 2.44613C15.6872 2.30808 14.4627 2.30808 13.25 2.44613C13.3349 2.02537 13.5625 1.64682 13.8943 1.37444C14.2261 1.10206 14.6417 0.952542 15.071 0.951134ZM15.071 30.7431C14.0644 30.7419 13.0933 30.3713 12.3419 29.7016C11.5904 29.032 11.1108 28.1099 10.994 27.1101H19.148C19.0314 28.1101 18.5518 29.0324 17.8003 29.7022C17.0488 30.3721 16.0776 30.7428 15.071 30.7441V30.7431Z" fill="#00B982"/>
<path opacity="0.18" d="M2.95938 22.0098H29.5004L28.7704 26.4038C25.87 25.93 22.8979 26.1702 20.1114 27.1038C18.7274 27.5798 17.6544 30.9328 15.8644 31.1858C14.9904 31.3118 13.8644 30.6528 12.7724 30.6088C11.1514 30.5458 11.7724 27.6838 10.0924 27.1088C8.87437 26.6888 3.58138 26.9458 2.34138 26.4088C-2.09162 24.4868 2.95938 22.0098 2.95938 22.0098Z" fill="#00B982"/>
</svg>
