<svg width="59" height="59" viewBox="0 0 59 59" fill="none" xmlns="http://www.w3.org/2000/svg">
<path d="M57.5995 19.5387L53.1995 15.1697C51.9352 16.4237 50.2267 17.1273 48.446 17.1273C46.6653 17.1273 44.9568 16.4237 43.6925 15.1697C43.0588 14.5531 42.5581 13.8131 42.2215 12.9954C41.8849 12.1778 41.7195 11.2998 41.7355 10.4157C41.7197 9.53163 41.8852 8.65371 42.2218 7.83608C42.5584 7.01844 43.0589 6.27843 43.6925 5.6617L39.3225 1.2927C38.4782 0.464161 37.3424 0 36.1595 0C34.9766 0 33.8408 0.464161 32.9965 1.2927L1.2935 32.9607C0.464487 33.8048 0 34.9406 0 36.1237C0 37.3068 0.464487 38.4426 1.2935 39.2867L5.6625 43.6867C6.27927 43.0531 7.01929 42.5526 7.83691 42.2161C8.65454 41.8795 9.53245 41.714 10.4165 41.7297C11.3004 41.7138 12.1782 41.8793 12.9957 42.2159C13.8132 42.5524 14.553 43.053 15.1695 43.6867C16.4233 44.9511 17.1267 46.6596 17.1267 48.4402C17.1267 50.2208 16.4233 51.9293 15.1695 53.1937L19.5695 57.5937C20.4137 58.4228 21.5497 58.8873 22.733 58.8873C23.9163 58.8873 25.0522 58.4228 25.8965 57.5937L57.5995 25.8647C58.428 25.0204 58.8922 23.8846 58.8922 22.7017C58.8922 21.5187 58.428 20.383 57.5995 19.5387ZM48.1265 26.5297L26.5265 48.1297C26.1027 48.5337 25.5396 48.7591 24.954 48.7591C24.3684 48.7591 23.8053 48.5337 23.3815 48.1297L10.7305 35.4777C10.521 35.2728 10.3545 35.0281 10.2408 34.758C10.1271 34.4879 10.0686 34.1978 10.0686 33.9047C10.0686 33.6116 10.1271 33.3215 10.2408 33.0514C10.3545 32.7813 10.521 32.5366 10.7305 32.3317L32.3305 10.7317C32.7546 10.3278 33.3178 10.1026 33.9035 10.1026C34.4892 10.1026 35.0524 10.3278 35.4765 10.7317L48.1305 23.3837C48.3408 23.5882 48.5079 23.8327 48.6221 24.1029C48.7362 24.3731 48.795 24.6634 48.795 24.9567C48.795 25.25 48.7362 25.5403 48.6221 25.8105C48.5079 26.0807 48.3408 26.3252 48.1305 26.5297H48.1265Z" fill="#00B982"/>
<path d="M33.905 13.9121L44.951 24.9571L24.961 44.9501L13.916 33.9051L33.905 13.9121Z" fill="#D9EFDD"/>
</svg>
