<svg width="24" height="24" viewBox="0 0 24 24" fill="none" xmlns="http://www.w3.org/2000/svg">
<path d="M5.856 6.83988C5.74176 6.77827 5.61348 6.74736 5.48371 6.75018C5.35395 6.753 5.22713 6.78944 5.11567 6.85596C5.00421 6.92247 4.91192 7.01677 4.84782 7.12964C4.78373 7.24251 4.75002 7.37008 4.75 7.49988V16.9999C4.75 17.1988 4.82902 17.3896 4.96967 17.5302C5.11032 17.6709 5.30109 17.7499 5.5 17.7499C5.69891 17.7499 5.88968 17.6709 6.03033 17.5302C6.17098 17.3896 6.25 17.1988 6.25 16.9999V8.75588L11.644 11.6599C11.866 11.7799 12.134 11.7799 12.356 11.6599L17.75 8.75588V16.9999C17.75 17.1988 17.829 17.3896 17.9697 17.5302C18.1103 17.6709 18.3011 17.7499 18.5 17.7499C18.6989 17.7499 18.8897 17.6709 19.0303 17.5302C19.171 17.3896 19.25 17.1988 19.25 16.9999V7.49988C19.25 7.37008 19.2163 7.24251 19.1522 7.12964C19.0881 7.01677 18.9958 6.92247 18.8843 6.85596C18.7729 6.78944 18.6461 6.753 18.5163 6.75018C18.3865 6.74736 18.2582 6.77827 18.144 6.83988L12 10.1479L5.856 6.83988Z" fill="#1B1B1B"/>
<path fill-rule="evenodd" clip-rule="evenodd" d="M17.31 3.72126C13.777 3.40541 10.223 3.40541 6.69 3.72126L5.172 3.85626C4.38129 3.92687 3.63746 4.26194 3.06064 4.80737C2.48382 5.3528 2.1077 6.07674 1.993 6.86226C1.49493 10.2688 1.49493 13.7297 1.993 17.1363C2.10794 17.9218 2.48431 18.6456 3.06131 19.1908C3.63831 19.7361 4.38226 20.0709 5.173 20.1413L6.689 20.2773C10.223 20.5933 13.777 20.5933 17.311 20.2773L18.828 20.1413C19.6186 20.0707 20.3623 19.7358 20.9391 19.1905C21.5159 18.6453 21.8921 17.9216 22.007 17.1363C22.5051 13.7297 22.5051 10.2688 22.007 6.86226C21.8923 6.07658 21.516 5.35253 20.939 4.80708C20.3619 4.26164 19.6179 3.92666 18.827 3.85626L17.31 3.72126ZM6.824 5.21526C10.2685 4.90729 13.7335 4.90729 17.178 5.21526L18.695 5.35126C19.1498 5.39165 19.5776 5.58417 19.9095 5.89771C20.2414 6.21126 20.4579 6.62752 20.524 7.07926C21.0011 10.3419 21.0011 13.6566 20.524 16.9193C20.4579 17.371 20.2414 17.7873 19.9095 18.1008C19.5776 18.4144 19.1498 18.6069 18.695 18.6473L17.178 18.7833C13.734 19.0913 10.268 19.0913 6.824 18.7833L5.307 18.6473C4.85223 18.6069 4.42435 18.4144 4.09249 18.1008C3.76062 17.7873 3.54413 17.371 3.478 16.9193C3.00097 13.6566 3.00097 10.3419 3.478 7.07926C3.54413 6.62752 3.76062 6.21126 4.09249 5.89771C4.42435 5.58417 4.85223 5.39165 5.307 5.35126L6.824 5.21526Z" fill="#1B1B1B"/>
</svg>
